<?xml version="1.0" encoding="utf-8"?>
<!-- Generator: Adobe Illustrator 22.0.0, SVG Export Plug-In . SVG Version: 6.00 Build 0)  -->
<svg version="1.1" id="Layer_1" xmlns="http://www.w3.org/2000/svg" xmlns:xlink="http://www.w3.org/1999/xlink" x="0px" y="0px"
	 viewBox="0 0 1400 700" style="enable-background:new 0 0 1400 700;" xml:space="preserve">
<style type="text/css">
	.st0{opacity:0.28;fill:#C8C8C8;}
	.st1{fill:#D3842D;}
	.st2{font-family:'OpenSans-Bold';}
	.st3{font-size:99.6085px;}
	.st4{letter-spacing:9;}
	.st5{fill:#EDA34A;}
	.st6{fill:#AF6114;}
	.st7{fill:#EAE1D3;}
	.st8{fill:#CCBAA3;}
	.st9{fill:#AA9379;}
	.st10{fill:#EFCFA5;}
	.st11{fill:#E2BA8A;}
	.st12{fill:#C18E57;}
	.st13{fill:#A8733F;}
	.st14{fill:#EAB260;}
	.st15{fill:#CE8D36;}
	.st16{fill:#2BBF39;}
	.st17{fill:#15A01F;}
</style>
<g>
	<g>

		<g>
			<rect x="448.3" y="487.5" class="st10" width="240" height="118"/>
			<rect x="448.3" y="487.5" class="st11" width="240" height="12.7"/>
			<polygon class="st10" points="437,467.1 447.4,487.7 689.2,487.7 699.5,467.1 			"/>
			<g>
				<path class="st12" d="M596.4,572.2v33.3h-56.2v-33.3c-0.5-13.4,24.1-43.7,28-48.4v1.2l0.2-1.2
					C572.2,528.5,596.8,558.8,596.4,572.2z"/>
				<g>
					<path class="st13" d="M596.4,572.2v33.3h-15.4v-33.3c0.3-9.5-11.8-27.4-20.4-38.7c3.6-4.7,6.5-8.3,7.6-9.7v1.2l0.2-1.2
						C572.2,528.5,596.8,558.8,596.4,572.2z"/>
				</g>
			</g>
			<g>
				<g>
					<path class="st12" d="M533.1,582.1v23.4h-31.3v-23.4c-0.3-9.4,13.4-30.7,15.6-34v0.8l0.1-0.8
						C519.7,551.4,533.4,572.7,533.1,582.1z"/>
					<g>
						<path class="st13" d="M533.1,582.1v23.4h-8.6v-23.4c0.2-6.7-6.6-19.2-11.3-27.2c2-3.3,3.6-5.8,4.2-6.8v0.8l0.1-0.8
							C519.7,551.4,533.4,572.7,533.1,582.1z"/>
					</g>
				</g>
				<g>
					<path class="st12" d="M490.3,582.1v23.4H459v-23.4c-0.3-9.4,13.4-30.7,15.6-34v0.8l0.1-0.8
						C476.8,551.4,490.5,572.7,490.3,582.1z"/>
					<g>
						<path class="st13" d="M490.3,582.1v23.4h-8.6v-23.4c0.2-6.7-6.6-19.2-11.3-27.2c2-3.3,3.6-5.8,4.2-6.8v0.8l0.1-0.8
							C476.8,551.4,490.5,572.7,490.3,582.1z"/>
					</g>
				</g>
				<g>
					<path class="st12" d="M677.5,582.1v23.4h-31.3v-23.4c-0.3-9.4,13.4-30.7,15.6-34v0.8l0.1-0.8
						C664.1,551.4,677.8,572.7,677.5,582.1z"/>
					<g>
						<path class="st13" d="M677.5,582.1v23.4h-8.6v-23.4c0.2-6.7-6.6-19.2-11.3-27.2c2-3.3,3.6-5.8,4.2-6.8v0.8l0.1-0.8
							C664.1,551.4,677.8,572.7,677.5,582.1z"/>
					</g>
				</g>
				<g>
					<path class="st12" d="M634.7,582.1v23.4h-31.3v-23.4c-0.3-9.4,13.4-30.7,15.6-34v0.8l0.1-0.8
						C621.2,551.4,634.9,572.7,634.7,582.1z"/>
					<g>
						<path class="st13" d="M634.7,582.1v23.4h-8.6v-23.4c0.2-6.7-6.6-19.2-11.3-27.2c2-3.3,3.6-5.8,4.2-6.8v0.8l0.1-0.8
							C621.2,551.4,634.9,572.7,634.7,582.1z"/>
					</g>
				</g>
			</g>
			<g>
				<rect x="446.3" y="337.8" class="st10" width="44.9" height="130.9"/>
				<rect x="446.3" y="337.8" class="st11" width="44.9" height="5.9"/>
				<g>
					<rect x="446.3" y="326" class="st10" width="11.2" height="11.8"/>
					<polygon class="st10" points="454.4,301 449.4,301 446.3,326 457.5,326 					"/>
				</g>
				<g>
					<rect x="479.7" y="326" class="st10" width="11.2" height="11.8"/>
					<polygon class="st10" points="487.8,301 482.8,301 479.7,326 490.9,326 					"/>
				</g>
				<g>
					<rect x="462.5" y="326" class="st10" width="11.2" height="11.8"/>
					<polygon class="st10" points="470.6,301 465.6,301 462.5,326 473.7,326 					"/>
				</g>
				<g>
					<polygon class="st11" points="446.7,322.2 446.3,325.8 457.5,325.8 457,322.2 					"/>
				</g>
				<g>
					<polygon class="st11" points="480.2,322.2 479.7,325.8 490.9,325.8 490.5,322.2 					"/>
				</g>
				<g>
					<polygon class="st11" points="463,322.2 462.5,325.8 473.7,325.8 473.3,322.2 					"/>
				</g>
			</g>
			<rect x="644.5" y="337.8" class="st10" width="44.9" height="130.9"/>
			<rect x="644.5" y="337.8" class="st11" width="44.9" height="5.9"/>
			<g>
				<rect x="644.5" y="326" class="st10" width="11.2" height="11.8"/>
				<polygon class="st10" points="652.6,301 647.7,301 644.5,326 655.7,326 				"/>
			</g>
			<g>
				<rect x="562.9" y="297.9" class="st10" width="11.2" height="11.8"/>
				<polygon class="st10" points="571,273 566,273 562.9,297.9 574.1,297.9 				"/>
			</g>
			<g>
				<rect x="678" y="326" class="st10" width="11.2" height="11.8"/>
				<polygon class="st10" points="686.1,301 681.1,301 678,326 689.2,326 				"/>
			</g>
			<g>
				<rect x="660.8" y="326" class="st10" width="11.2" height="11.8"/>
				<polygon class="st10" points="668.9,301 663.9,301 660.8,326 672,326 				"/>
			</g>
			<g>
				<polygon class="st11" points="645,322.2 644.5,325.8 655.7,325.8 655.3,322.2 				"/>
			</g>
			<g>
				<polygon class="st11" points="678.4,322.2 678,325.8 689.2,325.8 688.7,322.2 				"/>
			</g>
			<g>
				<polygon class="st11" points="661.2,322.2 660.8,325.8 672,325.8 671.5,322.2 				"/>
			</g>
			<rect x="446.3" y="457.6" class="st11" width="44.9" height="11"/>
			<rect x="644.5" y="457.6" class="st11" width="44.9" height="11"/>
			<rect x="491.2" y="376.8" class="st10" width="153.8" height="91.4"/>
			<rect x="491.2" y="456.7" class="st11" width="153.8" height="11.5"/>
			<rect x="491.2" y="376.8" class="st11" width="10.7" height="91.4"/>
			<rect x="634.3" y="376.8" class="st11" width="10.7" height="91.4"/>
			<g>
				<circle class="st12" cx="568.7" cy="420.4" r="30.6"/>
				<path class="st13" d="M568.7,389.8c-2.6,0-5,0.3-7.4,0.9c13.3,3.3,23.2,15.4,23.2,29.7c0,14.3-9.9,26.4-23.2,29.7
					c2.4,0.6,4.9,0.9,7.4,0.9c16.9,0,30.6-13.7,30.6-30.6C599.3,403.5,585.6,389.8,568.7,389.8z"/>
			</g>
			<g>
				<polygon class="st10" points="610.8,377.1 527.4,377.1 568.6,298.7 569.6,298.7 				"/>
				<g>
					<path class="st12" d="M581,372.5h-25.6v-19.4c0-6.7,5.5-12.2,12.2-12.2h1.2c6.7,0,12.2,5.5,12.2,12.2V372.5z"/>
					<path class="st13" d="M568.2,341c-1.3,0-2.5,0.2-3.7,0.5c5.3,1.4,9.1,5.9,9.1,11.1v19.9h7.4v-19.9
						C581,346.2,575.3,341,568.2,341z"/>
				</g>
			</g>
			<g>
				<rect x="490.7" y="329.4" class="st10" width="37.9" height="47.5"/>
				<rect x="490.7" y="329.4" class="st11" width="7.9" height="47.5"/>
				<path class="st12" d="M521.3,364.8h-19.5v-17.1c0-5.4,4.4-9.7,9.7-9.7l0,0c5.4,0,9.7,4.4,9.7,9.7V364.8z"/>
				<path class="st13" d="M511.6,338L511.6,338c-0.7,0-1.5,0.1-2.2,0.3c4.3,1,7.6,4.9,7.6,9.5v17.1h4.3v-17.1
					C521.3,342.4,516.9,338,511.6,338z"/>
			</g>
			<g>
				<g>
					<g>
						<path class="st12" d="M472.3,523.3H458v-12.5c0-3.9,3.2-7.1,7.1-7.1l0,0c3.9,0,7.1,3.2,7.1,7.1V523.3z"/>
						<path class="st13" d="M465.1,503.6L465.1,503.6c-0.5,0-1.1,0.1-1.6,0.2c3.2,0.7,5.5,3.6,5.5,6.9v12.5h3.2v-12.5
							C472.3,506.8,469.1,503.6,465.1,503.6z"/>
					</g>
					<g>
						<path class="st12" d="M507.1,523.3h-14.2v-12.5c0-3.9,3.2-7.1,7.1-7.1h0c3.9,0,7.1,3.2,7.1,7.1V523.3z"/>
						<path class="st13" d="M500,503.6L500,503.6c-0.5,0-1.1,0.1-1.6,0.2c3.2,0.7,5.5,3.6,5.5,6.9v12.5h3.2v-12.5
							C507.1,506.8,503.9,503.6,500,503.6z"/>
					</g>
					<g>
						<path class="st12" d="M541.9,523.3h-14.2v-12.5c0-3.9,3.2-7.1,7.1-7.1l0,0c3.9,0,7.1,3.2,7.1,7.1V523.3z"/>
						<path class="st13" d="M534.8,503.6L534.8,503.6c-0.5,0-1.1,0.1-1.6,0.2c3.2,0.7,5.5,3.6,5.5,6.9v12.5h3.2v-12.5
							C541.9,506.8,538.7,503.6,534.8,503.6z"/>
					</g>
				</g>
				<g>
					<g>
						<path class="st12" d="M604.7,523.3h-14.2v-12.5c0-3.9,3.2-7.1,7.1-7.1l0,0c3.9,0,7.1,3.2,7.1,7.1V523.3z"/>
						<path class="st13" d="M597.6,503.6L597.6,503.6c-0.5,0-1.1,0.1-1.6,0.2c3.2,0.7,5.5,3.6,5.5,6.9v12.5h3.2v-12.5
							C604.7,506.8,601.5,503.6,597.6,503.6z"/>
					</g>
					<g>
						<path class="st12" d="M639.5,523.3h-14.2v-12.5c0-3.9,3.2-7.1,7.1-7.1h0c3.9,0,7.1,3.2,7.1,7.1V523.3z"/>
						<path class="st13" d="M632.4,503.6L632.4,503.6c-0.5,0-1.1,0.1-1.6,0.2c3.2,0.7,5.5,3.6,5.5,6.9v12.5h3.2v-12.5
							C639.5,506.8,636.3,503.6,632.4,503.6z"/>
					</g>
					<g>
						<path class="st12" d="M674.3,523.3h-14.2v-12.5c0-3.9,3.2-7.1,7.1-7.1l0,0c3.9,0,7.1,3.2,7.1,7.1V523.3z"/>
						<path class="st13" d="M667.2,503.6L667.2,503.6c-0.5,0-1.1,0.1-1.6,0.2c3.2,0.7,5.5,3.6,5.5,6.9v12.5h3.2v-12.5
							C674.3,506.8,671.1,503.6,667.2,503.6z"/>
					</g>
				</g>
			</g>
			
				<rect x="606.6" y="329.4" transform="matrix(-1 -4.481849e-11 4.481849e-11 -1 1251.1035 706.1762)" class="st10" width="37.9" height="47.5"/>
			
				<rect x="636.6" y="329.4" transform="matrix(-1 -4.474300e-11 4.474300e-11 -1 1281.0829 706.1762)" class="st11" width="7.9" height="47.5"/>
			<path class="st12" d="M613.8,364.8h19.5v-17.1c0-5.4-4.4-9.7-9.7-9.7l0,0c-5.4,0-9.7,4.4-9.7,9.7V364.8z"/>
			<path class="st13" d="M623.6,338L623.6,338c0.7,0,1.5,0.1,2.2,0.3c-4.3,1-7.6,4.9-7.6,9.5v17.1h-4.3v-17.1
				C613.8,342.4,618.2,338,623.6,338z"/>
			<polygon class="st11" points="446.3,384 491.2,384 492.3,384 492.3,377.8 491.2,377.8 446.3,377.8 			"/>
			<rect x="446.3" y="423.4" class="st11" width="46.1" height="6.1"/>
			<polygon class="st11" points="643.4,384 688.3,384 689.4,384 689.4,377.8 688.3,377.8 643.4,377.8 			"/>
			<rect x="643.4" y="423.4" class="st11" width="46.1" height="6.1"/>
		</g>
	
		<g>
			<rect x="148.3" y="560.5" class="st14" width="10.3" height="45"/>
			<rect x="153.7" y="560.5" class="st15" width="4.9" height="45"/>
			<g>
				<circle class="st16" cx="153.8" cy="538.6" r="28"/>
				<path class="st17" d="M153.8,510.6c-2.7,0-5.3,0.4-7.8,1.1c11.6,3.4,20.1,14.1,20.1,26.9c0,12.7-8.5,23.5-20.1,26.9
					c2.5,0.7,5.1,1.1,7.8,1.1c15.4,0,28-12.5,28-28C181.8,523.1,169.2,510.6,153.8,510.6z"/>
			</g>
		</g>
		<g>
			<rect x="98.5" y="568.3" class="st14" width="8.5" height="37.2"/>
			<rect x="103" y="568.3" class="st15" width="4.1" height="37.2"/>
			<g>
				<circle class="st16" cx="103.1" cy="550.2" r="23.1"/>
				<path class="st17" d="M103.1,527.1c-2.2,0-4.4,0.3-6.5,0.9c9.6,2.8,16.6,11.7,16.6,22.2c0,10.5-7,19.4-16.6,22.2
					c2.1,0.6,4.2,0.9,6.5,0.9c12.8,0,23.1-10.3,23.1-23.1C126.2,537.5,115.8,527.1,103.1,527.1z"/>
			</g>
		</g>
		<g>
			<rect x="705.2" y="560.5" class="st14" width="10.3" height="45"/>
			<rect x="710.6" y="560.5" class="st15" width="4.9" height="45"/>
			<g>
				<circle class="st16" cx="710.7" cy="538.6" r="28"/>
				<path class="st17" d="M710.7,510.6c-2.7,0-5.3,0.4-7.8,1.1c11.6,3.4,20.1,14.1,20.1,26.9c0,12.7-8.5,23.5-20.1,26.9
					c2.5,0.7,5.1,1.1,7.8,1.1c15.4,0,28-12.5,28-28C738.7,523.1,726.2,510.6,710.7,510.6z"/>
			</g>
		</g>
		<g>
			<rect x="1280.9" y="560.5" class="st14" width="10.3" height="45"/>
			<rect x="1286.3" y="560.5" class="st15" width="4.9" height="45"/>
			<g>
				<circle class="st16" cx="1286.4" cy="538.6" r="28"/>
				<path class="st17" d="M1286.4,510.6c-2.7,0-5.3,0.4-7.8,1.1c11.6,3.4,20.1,14.1,20.1,26.9c0,12.7-8.5,23.5-20.1,26.9
					c2.5,0.7,5.1,1.1,7.8,1.1c15.4,0,28-12.5,28-28C1314.3,523.1,1301.8,510.6,1286.4,510.6z"/>
			</g>
		</g>
		<g>
			<rect x="1193.5" y="562.5" class="st14" width="9.9" height="43"/>
			<rect x="1198.6" y="562.5" class="st15" width="4.7" height="43"/>
			<g>
				<circle class="st16" cx="1198.7" cy="541.5" r="26.7"/>
				<path class="st17" d="M1198.7,514.8c-2.6,0-5.1,0.4-7.5,1.1c11.1,3.2,19.2,13.5,19.2,25.7c0,12.2-8.1,22.4-19.2,25.7
					c2.4,0.7,4.9,1.1,7.5,1.1c14.8,0,26.7-12,26.7-26.7C1225.4,526.8,1213.5,514.8,1198.7,514.8z"/>
			</g>
		</g>
		<g>
			<rect x="737.7" y="571.7" class="st14" width="7.8" height="33.8"/>
			<rect x="741.7" y="571.7" class="st15" width="3.7" height="33.8"/>
			<g>
				<circle class="st16" cx="741.8" cy="555.2" r="21"/>
				<path class="st17" d="M741.8,534.2c-2,0-4,0.3-5.9,0.8c8.7,2.5,15.1,10.6,15.1,20.2s-6.4,17.6-15.1,20.2
					c1.9,0.5,3.8,0.8,5.9,0.8c11.6,0,21-9.4,21-21C762.8,543.6,753.4,534.2,741.8,534.2z"/>
			</g>
		</g>
		<g>
			<rect x="422.3" y="568.3" class="st14" width="8.5" height="37.2"/>
			<rect x="426.7" y="568.3" class="st15" width="4.1" height="37.2"/>
			<g>
				<circle class="st16" cx="426.8" cy="550.2" r="23.1"/>
				<path class="st17" d="M426.8,527.1c-2.2,0-4.4,0.3-6.5,0.9c9.6,2.8,16.6,11.7,16.6,22.2c0,10.5-7,19.4-16.6,22.2
					c2.1,0.6,4.2,0.9,6.5,0.9c12.8,0,23.1-10.3,23.1-23.1C449.9,537.5,439.5,527.1,426.8,527.1z"/>
			</g>
		</g>
	</g>
	<path class="st14" d="M1341,638.6H59c-9.7,0-17.7-8-17.7-17.7v0c0-9.7,8-17.7,17.7-17.7H1341c9.7,0,17.7,8,17.7,17.7v0
		C1358.7,630.7,1350.8,638.6,1341,638.6z"/>

	
	
	
</g>
</svg>
