<?xml version="1.0" encoding="UTF-8" standalone="no"?>
<!DOCTYPE svg PUBLIC "-//W3C//DTD SVG 1.1//EN" "http://www.w3.org/Graphics/SVG/1.1/DTD/svg11.dtd">
<svg version="1.1" xmlns="http://www.w3.org/2000/svg" xmlns:xlink="http://www.w3.org/1999/xlink" preserveAspectRatio="xMidYMid meet" viewBox="0 0 165 165" width="165" height="165"><defs><path d="M137.77 98.06C137.77 98.06 137.77 98.06 137.77 98.06C137.77 130.42 137.77 148.4 137.77 152C137.77 152 137.77 152 137.77 152C71.94 152 35.37 152 28.06 152C28.06 152 28.06 152 28.06 152C28.06 119.63 28.06 101.65 28.06 98.06C28.06 98.06 28.06 98.06 28.06 98.06C93.89 98.06 130.46 98.06 137.77 98.06Z" id="e52je4CbHe"></path><path d="M137.77 98.06C137.77 98.06 137.77 98.06 137.77 98.06C137.77 101.54 137.77 103.48 137.77 103.86C137.77 103.86 137.77 103.86 137.77 103.86C71.94 103.86 35.37 103.86 28.06 103.86C28.06 103.86 28.06 103.86 28.06 103.86C28.06 100.38 28.06 98.44 28.06 98.06C28.06 98.06 28.06 98.06 28.06 98.06C93.89 98.06 130.46 98.06 137.77 98.06Z" id="e2tVsJmhXN"></path><path d="M27.65 98.15L138.18 98.15L142.89 88.73L22.89 88.73L27.65 98.15Z" id="i6l9h9pLob"></path><path d="M95.76 152L70.07 152C70.07 142.87 70.07 137.79 70.07 136.78C69.84 130.65 81.09 116.8 82.87 114.65C82.87 114.69 82.87 114.87 82.87 115.2C82.92 114.87 82.95 114.69 82.96 114.65C84.7 116.8 95.94 130.65 95.76 136.78C95.76 138.81 95.76 143.88 95.76 152Z" id="a1j7oqWNCP"></path><path d="M95.76 152L88.72 152C88.72 142.87 88.72 137.79 88.72 136.78C88.86 132.43 83.33 124.25 79.39 119.09C81.04 116.94 82.37 115.29 82.87 114.65C82.87 114.69 82.87 114.87 82.87 115.2C82.92 114.87 82.95 114.69 82.96 114.65C84.7 116.8 95.94 130.65 95.76 136.78C95.76 138.81 95.76 143.88 95.76 152Z" id="d1RGyY0UD7"></path><path d="M66.82 152L52.51 152C52.51 145.58 52.51 142.02 52.51 141.3C52.38 137.01 58.64 127.27 59.65 125.76C59.65 125.78 59.65 125.91 59.65 126.13C59.67 125.91 59.69 125.78 59.69 125.76C60.7 127.27 66.96 137.01 66.82 141.3C66.82 142.73 66.82 146.29 66.82 152Z" id="bobbymDWH"></path><path d="M66.82 152L62.89 152C62.89 145.58 62.89 142.02 62.89 141.3C62.98 138.24 59.87 132.53 57.73 128.87C58.64 127.36 59.37 126.22 59.65 125.76C59.65 125.78 59.65 125.91 59.65 126.13C59.67 125.91 59.69 125.78 59.69 125.76C60.7 127.27 66.96 137.01 66.82 141.3C66.82 142.73 66.82 146.29 66.82 152Z" id="a4v9PRjM2"></path><path d="M47.26 152L32.95 152C32.95 145.58 32.95 142.02 32.95 141.3C32.81 137.01 39.07 127.27 40.08 125.76C40.08 125.78 40.08 125.91 40.08 126.13C40.11 125.91 40.12 125.78 40.13 125.76C41.09 127.27 47.35 137.01 47.26 141.3C47.26 142.73 47.26 146.29 47.26 152Z" id="e5ONjvfXN"></path><path d="M47.26 152L43.33 152C43.33 145.58 43.33 142.02 43.33 141.3C43.42 138.24 40.31 132.53 38.16 128.87C39.07 127.36 39.81 126.22 40.08 125.76C40.08 125.78 40.08 125.91 40.08 126.13C40.11 125.91 40.12 125.78 40.13 125.76C41.09 127.27 47.35 137.01 47.26 141.3C47.26 142.73 47.26 146.29 47.26 152Z" id="btZngdso8"></path><path d="M132.83 152L118.53 152C118.53 145.58 118.53 142.02 118.53 141.3C118.39 137.01 124.65 127.27 125.66 125.76C125.66 125.78 125.66 125.91 125.66 126.13C125.68 125.91 125.7 125.78 125.7 125.76C126.71 127.27 132.97 137.01 132.83 141.3C132.83 142.73 132.83 146.29 132.83 152Z" id="b3I5GJ6Daz"></path><path d="M132.83 152L128.9 152C128.9 145.58 128.9 142.02 128.9 141.3C128.99 138.24 125.89 132.53 123.74 128.87C124.65 127.36 125.38 126.22 125.66 125.76C125.66 125.78 125.66 125.91 125.66 126.13C125.68 125.91 125.7 125.78 125.7 125.76C126.71 127.27 132.97 137.01 132.83 141.3C132.83 142.73 132.83 146.29 132.83 152Z" id="cATwKBXoH"></path><path d="M113.27 152L98.96 152C98.96 145.58 98.96 142.02 98.96 141.3C98.82 137.01 105.09 127.27 106.09 125.76C106.09 125.78 106.09 125.91 106.09 126.13C106.12 125.91 106.13 125.78 106.14 125.76C107.1 127.27 113.36 137.01 113.27 141.3C113.27 142.73 113.27 146.29 113.27 152Z" id="d3Jh8THAoE"></path><path d="M113.27 152L109.34 152C109.34 145.58 109.34 142.02 109.34 141.3C109.43 138.24 106.32 132.53 104.17 128.87C105.09 127.36 105.82 126.22 106.09 125.76C106.09 125.78 106.09 125.91 106.09 126.13C106.12 125.91 106.13 125.78 106.14 125.76C107.1 127.27 113.36 137.01 113.27 141.3C113.27 142.73 113.27 146.29 113.27 152Z" id="a12XGrVQTI"></path><path d="M47.67 29.62C47.67 29.62 47.67 29.62 47.67 29.62C47.67 65.53 47.67 85.47 47.67 89.46C47.67 89.46 47.67 89.46 47.67 89.46C35.35 89.46 28.51 89.46 27.14 89.46C27.14 89.46 27.14 89.46 27.14 89.46C27.14 53.56 27.14 33.61 27.14 29.62C27.14 29.62 27.14 29.62 27.14 29.62C39.46 29.62 46.3 29.62 47.67 29.62Z" id="a3EIlGjzXP"></path><path d="M47.67 29.62C47.67 29.62 47.67 29.62 47.67 29.62C47.67 31.24 47.67 32.14 47.67 32.32C47.67 32.32 47.67 32.32 47.67 32.32C35.35 32.32 28.51 32.32 27.14 32.32C27.14 32.32 27.14 32.32 27.14 32.32C27.14 30.7 27.14 29.8 27.14 29.62C27.14 29.62 27.14 29.62 27.14 29.62C39.46 29.62 46.3 29.62 47.67 29.62Z" id="a1v8o35Zr"></path><path d="M32.26 24.23C32.26 24.23 32.26 24.23 32.26 24.23C32.26 27.47 32.26 29.26 32.26 29.62C32.26 29.62 32.26 29.62 32.26 29.62C29.19 29.62 27.48 29.62 27.14 29.62C27.14 29.62 27.14 29.62 27.14 29.62C27.14 26.39 27.14 24.59 27.14 24.23C27.14 24.23 27.14 24.23 27.14 24.23C30.21 24.23 31.92 24.23 32.26 24.23Z" id="c5f2SxitpY"></path><path d="M28.56 12.8L27.14 24.23L32.26 24.23L30.85 12.8L28.56 12.8Z" id="b7FLRyK8v"></path><path d="M47.53 24.23C47.53 24.23 47.53 24.23 47.53 24.23C47.53 27.47 47.53 29.26 47.53 29.62C47.53 29.62 47.53 29.62 47.53 29.62C44.46 29.62 42.75 29.62 42.41 29.62C42.41 29.62 42.41 29.62 42.41 29.62C42.41 26.39 42.41 24.59 42.41 24.23C42.41 24.23 42.41 24.23 42.41 24.23C45.48 24.23 47.19 24.23 47.53 24.23Z" id="a10FnGvAAe"></path><path d="M43.83 12.8L42.41 24.23L47.53 24.23L46.11 12.8L43.83 12.8Z" id="a861ZY5OF"></path><path d="M39.67 24.23C39.67 24.23 39.67 24.23 39.67 24.23C39.67 27.47 39.67 29.26 39.67 29.62C39.67 29.62 39.67 29.62 39.67 29.62C36.6 29.62 34.89 29.62 34.55 29.62C34.55 29.62 34.55 29.62 34.55 29.62C34.55 26.39 34.55 24.59 34.55 24.23C34.55 24.23 34.55 24.23 34.55 24.23C37.62 24.23 39.33 24.23 39.67 24.23Z" id="a15XScY8wP"></path><path d="M35.97 12.8L34.55 24.23L39.67 24.23L38.25 12.8L35.97 12.8Z" id="f9CHToPjp"></path><path d="M27.14 24.14L32.26 24.14L32.03 22.49L27.33 22.49L27.14 24.14Z" id="bkCWpKCEn"></path><path d="M42.41 24.14L47.53 24.14L47.35 22.49L42.64 22.49L42.41 24.14Z" id="c23wYeTPYL"></path><path d="M34.55 24.14L39.67 24.14L39.49 22.49L34.78 22.49L34.55 24.14Z" id="m8hV3l1WTa"></path><path d="M138.27 29.62C138.27 29.62 138.27 29.62 138.27 29.62C138.27 65.53 138.27 85.47 138.27 89.46C138.27 89.46 138.27 89.46 138.27 89.46C125.96 89.46 119.12 89.46 117.75 89.46C117.75 89.46 117.75 89.46 117.75 89.46C117.75 53.56 117.75 33.61 117.75 29.62C117.75 29.62 117.75 29.62 117.75 29.62C130.06 29.62 136.91 29.62 138.27 29.62Z" id="b1wROIBoXU"></path><path d="M138.27 29.62C138.27 29.62 138.27 29.62 138.27 29.62C138.27 31.24 138.27 32.14 138.27 32.32C138.27 32.32 138.27 32.32 138.27 32.32C125.96 32.32 119.12 32.32 117.75 32.32C117.75 32.32 117.75 32.32 117.75 32.32C117.75 30.7 117.75 29.8 117.75 29.62C117.75 29.62 117.75 29.62 117.75 29.62C130.06 29.62 136.91 29.62 138.27 29.62Z" id="b4qgvOYJWc"></path><path d="M122.87 24.23C122.87 24.23 122.87 24.23 122.87 24.23C122.87 27.47 122.87 29.26 122.87 29.62C122.87 29.62 122.87 29.62 122.87 29.62C119.8 29.62 118.09 29.62 117.75 29.62C117.75 29.62 117.75 29.62 117.75 29.62C117.75 26.39 117.75 24.59 117.75 24.23C117.75 24.23 117.75 24.23 117.75 24.23C120.82 24.23 122.53 24.23 122.87 24.23Z" id="aMmQAFO43"></path><path d="M119.21 12.8L117.75 24.23L122.87 24.23L121.45 12.8L119.21 12.8Z" id="eeE1cm6n6"></path><path d="M85.57 11.38C85.57 11.38 85.57 11.38 85.57 11.38C85.57 14.62 85.57 16.42 85.57 16.78C85.57 16.78 85.57 16.78 85.57 16.78C82.49 16.78 80.79 16.78 80.45 16.78C80.45 16.78 80.45 16.78 80.45 16.78C80.45 13.54 80.45 11.74 80.45 11.38C80.45 11.38 80.45 11.38 80.45 11.38C83.52 11.38 85.22 11.38 85.57 11.38Z" id="e2eah6P1r4"></path><path d="M81.86 0L80.45 11.38L85.57 11.38L84.15 0L81.86 0Z" id="b7yyqp7488"></path><path d="M138.18 24.23C138.18 24.23 138.18 24.23 138.18 24.23C138.18 27.47 138.18 29.26 138.18 29.62C138.18 29.62 138.18 29.62 138.18 29.62C135.11 29.62 133.4 29.62 133.06 29.62C133.06 29.62 133.06 29.62 133.06 29.62C133.06 26.39 133.06 24.59 133.06 24.23C133.06 24.23 133.06 24.23 133.06 24.23C136.13 24.23 137.84 24.23 138.18 24.23Z" id="b2lq3EzTZG"></path><path d="M134.48 12.8L133.06 24.23L138.18 24.23L136.77 12.8L134.48 12.8Z" id="cgr7TERPN"></path><path d="M130.32 24.23C130.32 24.23 130.32 24.23 130.32 24.23C130.32 27.47 130.32 29.26 130.32 29.62C130.32 29.62 130.32 29.62 130.32 29.62C127.25 29.62 125.54 29.62 125.2 29.62C125.2 29.62 125.2 29.62 125.2 29.62C125.2 26.39 125.2 24.59 125.2 24.23C125.2 24.23 125.2 24.23 125.2 24.23C128.27 24.23 129.98 24.23 130.32 24.23Z" id="csKDbDNdy"></path><path d="M126.62 12.8L125.2 24.23L130.32 24.23L128.9 12.8L126.62 12.8Z" id="bfeV6C8Xn"></path><path d="M117.75 24.14L122.87 24.14L122.69 22.49L117.98 22.49L117.75 24.14Z" id="kaF3op7em"></path><path d="M133.06 24.14L138.18 24.14L137.95 22.49L133.25 22.49L133.06 24.14Z" id="d483vjiynv"></path><path d="M125.2 24.14L130.32 24.14L130.09 22.49L125.38 22.49L125.2 24.14Z" id="a1RXVXEaFR"></path><path d="M47.67 84.39C47.67 84.39 47.67 84.39 47.67 84.39C47.67 87.41 47.67 89.08 47.67 89.42C47.67 89.42 47.67 89.42 47.67 89.42C35.35 89.42 28.51 89.42 27.14 89.42C27.14 89.42 27.14 89.42 27.14 89.42C27.14 86.4 27.14 84.72 27.14 84.39C27.14 84.39 27.14 84.39 27.14 84.39C39.46 84.39 46.3 84.39 47.67 84.39Z" id="c35N6mvcby"></path><path d="M138.27 84.39C138.27 84.39 138.27 84.39 138.27 84.39C138.27 87.41 138.27 89.08 138.27 89.42C138.27 89.42 138.27 89.42 138.27 89.42C125.96 89.42 119.12 89.42 117.75 89.42C117.75 89.42 117.75 89.42 117.75 89.42C117.75 86.4 117.75 84.72 117.75 84.39C117.75 84.39 117.75 84.39 117.75 84.39C130.06 84.39 136.91 84.39 138.27 84.39Z" id="e62r5U8i5"></path><path d="M117.98 47.45C117.98 47.45 117.98 47.45 117.98 47.45C117.98 72.52 117.98 86.45 117.98 89.23C117.98 89.23 117.98 89.23 117.98 89.23C75.79 89.23 52.36 89.23 47.67 89.23C47.67 89.23 47.67 89.23 47.67 89.23C47.67 64.16 47.67 50.24 47.67 47.45C47.67 47.45 47.67 47.45 47.67 47.45C89.85 47.45 113.29 47.45 117.98 47.45Z" id="bbalQADOFJ"></path><path d="M117.98 83.98C117.98 83.98 117.98 83.98 117.98 83.98C117.98 87.13 117.98 88.88 117.98 89.23C117.98 89.23 117.98 89.23 117.98 89.23C75.79 89.23 52.36 89.23 47.67 89.23C47.67 89.23 47.67 89.23 47.67 89.23C47.67 86.08 47.67 84.33 47.67 83.98C47.67 83.98 47.67 83.98 47.67 83.98C89.85 83.98 113.29 83.98 117.98 83.98Z" id="b8ta5NdhM"></path><path d="M52.56 47.45C52.56 47.45 52.56 47.45 52.56 47.45C52.56 72.52 52.56 86.45 52.56 89.23C52.56 89.23 52.56 89.23 52.56 89.23C49.63 89.23 47.99 89.23 47.67 89.23C47.67 89.23 47.67 89.23 47.67 89.23C47.67 64.16 47.67 50.24 47.67 47.45C47.67 47.45 47.67 47.45 47.67 47.45C50.6 47.45 52.23 47.45 52.56 47.45Z" id="bbLf9FvO"></path><path d="M117.98 47.45C117.98 47.45 117.98 47.45 117.98 47.45C117.98 72.52 117.98 86.45 117.98 89.23C117.98 89.23 117.98 89.23 117.98 89.23C115.04 89.23 113.41 89.23 113.09 89.23C113.09 89.23 113.09 89.23 113.09 89.23C113.09 64.16 113.09 50.24 113.09 47.45C113.09 47.45 113.09 47.45 113.09 47.45C116.02 47.45 117.65 47.45 117.98 47.45Z" id="a5lSBIVK0P"></path><path d="M83.1 53.39C75.37 53.39 69.11 59.66 69.11 67.38C69.11 75.11 75.37 81.37 83.1 81.37C90.82 81.37 97.09 75.11 97.09 67.38C97.09 59.66 90.82 53.39 83.1 53.39Z" id="c9jf9tvOD"></path><path d="M79.71 53.81C85.79 55.31 90.32 60.85 90.32 67.38C90.32 73.92 85.79 79.45 79.71 80.96C80.81 81.23 81.95 81.37 83.1 81.37C90.82 81.37 97.09 75.11 97.09 67.38C97.09 59.66 90.82 53.39 83.1 53.39C81.91 53.39 80.81 53.53 79.71 53.81Z" id="fIfDI5A5C"></path><path d="M64.22 47.59L83.05 11.75L83.51 11.75L102.34 47.59L64.22 47.59Z" id="a6rz3AK3e"></path><path d="M77.02 45.49C77.02 40.16 77.02 37.21 77.02 36.62C77.02 33.55 79.53 31.04 82.59 31.04C82.65 31.04 83.09 31.04 83.14 31.04C86.21 31.04 88.72 33.55 88.72 36.62C88.72 37.21 88.72 40.16 88.72 45.49L77.02 45.49Z" id="b2b1XWOj5z"></path><path d="M81.18 31.31C83.6 31.95 85.34 34.01 85.34 36.39C85.34 37 85.34 40.03 85.34 45.49L88.72 45.49C88.72 40.03 88.72 37 88.72 36.39C88.72 33.46 86.11 31.09 82.87 31.09C82.27 31.09 81.73 31.18 81.18 31.31Z" id="c5W96Zhhog"></path><path d="M64.77 25.78C64.77 25.78 64.77 25.78 64.77 25.78C64.77 38.81 64.77 46.05 64.77 47.5C64.77 47.5 64.77 47.5 64.77 47.5C54.37 47.5 48.6 47.5 47.44 47.5C47.44 47.5 47.44 47.5 47.44 47.5C47.44 34.47 47.44 27.23 47.44 25.78C47.44 25.78 47.44 25.78 47.44 25.78C57.84 25.78 63.61 25.78 64.77 25.78Z" id="a1eOdEnR6G"></path><path d="M51.05 25.78C51.05 25.78 51.05 25.78 51.05 25.78C51.05 38.81 51.05 46.05 51.05 47.5C51.05 47.5 51.05 47.5 51.05 47.5C48.88 47.5 47.68 47.5 47.44 47.5C47.44 47.5 47.44 47.5 47.44 47.5C47.44 34.47 47.44 27.23 47.44 25.78C47.44 25.78 47.44 25.78 47.44 25.78C49.61 25.78 50.81 25.78 51.05 25.78Z" id="k2ai7hIj3"></path><path d="M52.51 41.97C52.51 37.28 52.51 34.67 52.51 34.15C52.51 31.68 54.53 29.71 56.95 29.71C56.95 29.71 56.95 29.71 56.95 29.71C59.42 29.71 61.38 31.73 61.38 34.15C61.38 34.67 61.38 37.28 61.38 41.97L52.51 41.97Z" id="coubBt1s9"></path><path d="M56.99 29.71C56.67 29.71 56.31 29.76 55.99 29.85C57.95 30.31 59.46 32.09 59.46 34.19C59.46 34.72 59.46 37.32 59.46 42.01L61.43 42.01C61.43 37.32 61.43 34.72 61.43 34.19C61.43 31.73 59.42 29.71 56.99 29.71C56.99 29.71 56.99 29.71 56.99 29.71Z" id="b1dVTtBN1x"></path><path d="M32.49 114.42C32.49 110.99 32.49 109.09 32.49 108.71C32.49 106.93 33.95 105.46 35.74 105.46C35.74 105.46 35.74 105.46 35.74 105.46C37.52 105.46 38.98 106.93 38.98 108.71C38.98 109.09 38.98 110.99 38.98 114.42L32.49 114.42Z" id="c45LBDjRb5"></path><path d="M35.74 105.42C35.51 105.42 35.23 105.46 35.01 105.51C36.47 105.83 37.52 107.15 37.52 108.66C37.52 109.04 37.52 110.95 37.52 114.38L38.98 114.38C38.98 110.95 38.98 109.04 38.98 108.66C39.03 106.88 37.57 105.42 35.74 105.42C35.74 105.42 35.74 105.42 35.74 105.42Z" id="lkWBJdRnZ"></path><path d="M48.45 114.42C48.45 110.99 48.45 109.09 48.45 108.71C48.45 106.93 49.91 105.46 51.69 105.46C51.69 105.46 51.69 105.46 51.69 105.46C53.47 105.46 54.94 106.93 54.94 108.71C54.94 109.09 54.94 110.99 54.94 114.42L48.45 114.42Z" id="bWoCm7lOU"></path><path d="M51.69 105.42C51.46 105.42 51.19 105.46 50.96 105.51C52.42 105.83 53.47 107.15 53.47 108.66C53.47 109.04 53.47 110.95 53.47 114.38L54.94 114.38C54.94 110.95 54.94 109.04 54.94 108.66C54.94 106.88 53.47 105.42 51.69 105.42C51.69 105.42 51.69 105.42 51.69 105.42Z" id="b28t60lHNN"></path><path d="M64.35 114.42C64.35 110.99 64.35 109.09 64.35 108.71C64.35 106.93 65.82 105.46 67.6 105.46C67.6 105.46 67.6 105.46 67.6 105.46C69.38 105.46 70.85 106.93 70.85 108.71C70.85 109.09 70.85 110.99 70.85 114.42L64.35 114.42Z" id="j63iKsYUQ"></path><path d="M67.6 105.42C67.37 105.42 67.1 105.46 66.87 105.51C68.33 105.83 69.38 107.15 69.38 108.66C69.38 109.04 69.38 110.95 69.38 114.38L70.85 114.38C70.85 110.95 70.85 109.04 70.85 108.66C70.85 106.88 69.38 105.42 67.6 105.42C67.6 105.42 67.6 105.42 67.6 105.42Z" id="c1ew5KxH6X"></path><path d="M93.06 114.42C93.06 110.99 93.06 109.09 93.06 108.71C93.06 106.93 94.53 105.46 96.31 105.46C96.31 105.46 96.31 105.46 96.31 105.46C98.09 105.46 99.55 106.93 99.55 108.71C99.55 109.09 99.55 110.99 99.55 114.42L93.06 114.42Z" id="d169fBzh2M"></path><path d="M96.31 105.42C96.08 105.42 95.81 105.46 95.58 105.51C97.04 105.83 98.09 107.15 98.09 108.66C98.09 109.04 98.09 110.95 98.09 114.38L99.55 114.38C99.55 110.95 99.55 109.04 99.55 108.66C99.55 106.88 98.09 105.42 96.31 105.42C96.31 105.42 96.31 105.42 96.31 105.42Z" id="f6Y3qJdNn"></path><path d="M108.97 114.42C108.97 110.99 108.97 109.09 108.97 108.71C108.97 106.93 110.43 105.46 112.22 105.46C112.22 105.46 112.22 105.46 112.22 105.46C114 105.46 115.46 106.93 115.46 108.71C115.46 109.09 115.46 110.99 115.46 114.42L108.97 114.42Z" id="cBrEBlLP2"></path><path d="M112.22 105.42C111.99 105.42 111.71 105.46 111.49 105.51C112.95 105.83 114 107.15 114 108.66C114 109.04 114 110.95 114 114.38L115.46 114.38C115.46 110.95 115.46 109.04 115.46 108.66C115.46 106.88 114 105.42 112.22 105.42C112.22 105.42 112.22 105.42 112.22 105.42Z" id="f1vS0IZeRT"></path><path d="M124.88 114.42C124.88 110.99 124.88 109.09 124.88 108.71C124.88 106.93 126.34 105.46 128.13 105.46C128.13 105.46 128.13 105.46 128.13 105.46C129.91 105.46 131.37 106.93 131.37 108.71C131.37 109.09 131.37 110.99 131.37 114.42L124.88 114.42Z" id="bg7fUnHfx"></path><path d="M128.13 105.42C127.9 105.42 127.62 105.46 127.39 105.51C128.86 105.83 129.91 107.15 129.91 108.66C129.91 109.04 129.91 110.95 129.91 114.38L131.37 114.38C131.37 110.95 131.37 109.04 131.37 108.66C131.37 106.88 129.91 105.42 128.13 105.42C128.13 105.42 128.13 105.42 128.13 105.42Z" id="aUXt6b2t"></path><path d="M100.42 47.44C100.42 47.44 100.42 47.44 100.42 47.44C100.42 34.41 100.42 27.17 100.42 25.73C100.42 25.73 100.42 25.73 100.42 25.73C110.82 25.73 116.6 25.73 117.75 25.73C117.75 25.73 117.75 25.73 117.75 25.73C117.75 38.75 117.75 45.99 117.75 47.44C117.75 47.44 117.75 47.44 117.75 47.44C107.35 47.44 101.58 47.44 100.42 47.44Z" id="b3XuohYj3U"></path><path d="M114.13 47.44C114.13 47.44 114.13 47.44 114.13 47.44C114.13 34.41 114.13 27.17 114.13 25.73C114.13 25.73 114.13 25.73 114.13 25.73C116.3 25.73 117.5 25.73 117.74 25.73C117.74 25.73 117.74 25.73 117.74 25.73C117.74 38.75 117.74 45.99 117.74 47.44C117.74 47.44 117.74 47.44 117.74 47.44C115.57 47.44 114.37 47.44 114.13 47.44Z" id="lchGu5KcB"></path><path d="M112.63 41.97C112.63 37.28 112.63 34.67 112.63 34.15C112.63 31.68 110.62 29.71 108.19 29.71C108.19 29.71 108.19 29.71 108.19 29.71C105.73 29.71 103.76 31.73 103.76 34.15C103.76 34.67 103.76 37.28 103.76 41.97L112.63 41.97Z" id="jjfQQhlmy"></path><path d="M108.19 29.71C108.51 29.71 108.88 29.76 109.2 29.85C107.23 30.31 105.73 32.09 105.73 34.19C105.73 34.72 105.73 37.32 105.73 42.01L103.76 42.01C103.76 37.32 103.76 34.72 103.76 34.19C103.71 31.73 105.73 29.71 108.19 29.71C108.19 29.71 108.19 29.71 108.19 29.71Z" id="bw9An0BSV"></path><path d="M47.67 50.74L48.17 50.74L48.17 47.91L47.67 47.91L27.14 47.91L27.14 50.74L47.67 50.74Z" id="bB6MDrgBW"></path><path d="M48.22 68.75C48.22 68.75 48.22 68.75 48.22 68.75C48.22 70.43 48.22 71.36 48.22 71.54C48.22 71.54 48.22 71.54 48.22 71.54C35.57 71.54 28.55 71.54 27.14 71.54C27.14 71.54 27.14 71.54 27.14 71.54C27.14 69.87 27.14 68.94 27.14 68.75C27.14 68.75 27.14 68.75 27.14 68.75C39.79 68.75 46.81 68.75 48.22 68.75Z" id="a33aSYrGc"></path><path d="M137.77 50.74L138.27 50.74L138.27 47.91L137.77 47.91L117.25 47.91L117.25 50.74L137.77 50.74Z" id="c1YZO4nOsu"></path><path d="M138.32 68.75C138.32 68.75 138.32 68.75 138.32 68.75C138.32 70.43 138.32 71.36 138.32 71.54C138.32 71.54 138.32 71.54 138.32 71.54C125.68 71.54 118.65 71.54 117.25 71.54C117.25 71.54 117.25 71.54 117.25 71.54C117.25 69.87 117.25 68.94 117.25 68.75C117.25 68.75 117.25 68.75 117.25 68.75C129.89 68.75 136.92 68.75 138.32 68.75Z" id="g1yxX8pOPB"></path><path d="M2.23 167.13C1.01 167.13 0 163.47 0 159.04C0 159.04 0 159.04 0 159.04C0 154.61 1.01 150.95 2.23 150.95C18.35 150.95 147.32 150.95 163.44 150.95C164.66 150.95 165.67 154.61 165.67 159.04C165.67 159.04 165.67 159.04 165.67 159.04C165.67 163.52 164.68 167.13 163.44 167.13C131.2 167.13 18.35 167.13 2.23 167.13Z" id="cu9RUgOJj"></path><linearGradient id="gradientchOK45pqz" gradientUnits="userSpaceOnUse" x1="82.83" y1="150.95" x2="82.83" y2="167.13"><stop style="stop-color: #eab260;stop-opacity: 1" offset="0%"></stop><stop style="stop-color: #ffffff;stop-opacity: 1" offset="100%"></stop></linearGradient></defs><g><g><g><use xlink:href="#e52je4CbHe" opacity="1" fill="#efcfa5" fill-opacity="1"></use><g><use xlink:href="#e52je4CbHe" opacity="1" fill-opacity="0" stroke="#000000" stroke-width="1" stroke-opacity="0"></use></g></g><g><use xlink:href="#e2tVsJmhXN" opacity="1" fill="#e2ba8a" fill-opacity="1"></use><g><use xlink:href="#e2tVsJmhXN" opacity="1" fill-opacity="0" stroke="#000000" stroke-width="1" stroke-opacity="0"></use></g></g><g><use xlink:href="#i6l9h9pLob" opacity="1" fill="#efcfa5" fill-opacity="1"></use><g><use xlink:href="#i6l9h9pLob" opacity="1" fill-opacity="0" stroke="#000000" stroke-width="1" stroke-opacity="0"></use></g></g><g><use xlink:href="#a1j7oqWNCP" opacity="1" fill="#c18e57" fill-opacity="1"></use><g><use xlink:href="#a1j7oqWNCP" opacity="1" fill-opacity="0" stroke="#000000" stroke-width="1" stroke-opacity="0"></use></g></g><g><use xlink:href="#d1RGyY0UD7" opacity="1" fill="#a8733f" fill-opacity="1"></use><g><use xlink:href="#d1RGyY0UD7" opacity="1" fill-opacity="0" stroke="#000000" stroke-width="1" stroke-opacity="0"></use></g></g><g><use xlink:href="#bobbymDWH" opacity="1" fill="#c18e57" fill-opacity="1"></use><g><use xlink:href="#bobbymDWH" opacity="1" fill-opacity="0" stroke="#000000" stroke-width="1" stroke-opacity="0"></use></g></g><g><use xlink:href="#a4v9PRjM2" opacity="1" fill="#a8733f" fill-opacity="1"></use><g><use xlink:href="#a4v9PRjM2" opacity="1" fill-opacity="0" stroke="#000000" stroke-width="1" stroke-opacity="0"></use></g></g><g><use xlink:href="#e5ONjvfXN" opacity="1" fill="#c18e57" fill-opacity="1"></use><g><use xlink:href="#e5ONjvfXN" opacity="1" fill-opacity="0" stroke="#000000" stroke-width="1" stroke-opacity="0"></use></g></g><g><use xlink:href="#btZngdso8" opacity="1" fill="#a8733f" fill-opacity="1"></use><g><use xlink:href="#btZngdso8" opacity="1" fill-opacity="0" stroke="#000000" stroke-width="1" stroke-opacity="0"></use></g></g><g><use xlink:href="#b3I5GJ6Daz" opacity="1" fill="#c18e57" fill-opacity="1"></use><g><use xlink:href="#b3I5GJ6Daz" opacity="1" fill-opacity="0" stroke="#000000" stroke-width="1" stroke-opacity="0"></use></g></g><g><use xlink:href="#cATwKBXoH" opacity="1" fill="#a8733f" fill-opacity="1"></use><g><use xlink:href="#cATwKBXoH" opacity="1" fill-opacity="0" stroke="#000000" stroke-width="1" stroke-opacity="0"></use></g></g><g><use xlink:href="#d3Jh8THAoE" opacity="1" fill="#c18e57" fill-opacity="1"></use><g><use xlink:href="#d3Jh8THAoE" opacity="1" fill-opacity="0" stroke="#000000" stroke-width="1" stroke-opacity="0"></use></g></g><g><use xlink:href="#a12XGrVQTI" opacity="1" fill="#a8733f" fill-opacity="1"></use><g><use xlink:href="#a12XGrVQTI" opacity="1" fill-opacity="0" stroke="#000000" stroke-width="1" stroke-opacity="0"></use></g></g><g><use xlink:href="#a3EIlGjzXP" opacity="1" fill="#efcfa5" fill-opacity="1"></use><g><use xlink:href="#a3EIlGjzXP" opacity="1" fill-opacity="0" stroke="#000000" stroke-width="1" stroke-opacity="0"></use></g></g><g><use xlink:href="#a1v8o35Zr" opacity="1" fill="#e2ba8a" fill-opacity="1"></use><g><use xlink:href="#a1v8o35Zr" opacity="1" fill-opacity="0" stroke="#000000" stroke-width="1" stroke-opacity="0"></use></g></g><g><use xlink:href="#c5f2SxitpY" opacity="1" fill="#efcfa5" fill-opacity="1"></use><g><use xlink:href="#c5f2SxitpY" opacity="1" fill-opacity="0" stroke="#000000" stroke-width="1" stroke-opacity="0"></use></g></g><g><use xlink:href="#b7FLRyK8v" opacity="1" fill="#efcfa5" fill-opacity="1"></use><g><use xlink:href="#b7FLRyK8v" opacity="1" fill-opacity="0" stroke="#000000" stroke-width="1" stroke-opacity="0"></use></g></g><g><use xlink:href="#a10FnGvAAe" opacity="1" fill="#efcfa5" fill-opacity="1"></use><g><use xlink:href="#a10FnGvAAe" opacity="1" fill-opacity="0" stroke="#000000" stroke-width="1" stroke-opacity="0"></use></g></g><g><use xlink:href="#a861ZY5OF" opacity="1" fill="#efcfa5" fill-opacity="1"></use><g><use xlink:href="#a861ZY5OF" opacity="1" fill-opacity="0" stroke="#000000" stroke-width="1" stroke-opacity="0"></use></g></g><g><use xlink:href="#a15XScY8wP" opacity="1" fill="#efcfa5" fill-opacity="1"></use><g><use xlink:href="#a15XScY8wP" opacity="1" fill-opacity="0" stroke="#000000" stroke-width="1" stroke-opacity="0"></use></g></g><g><use xlink:href="#f9CHToPjp" opacity="1" fill="#efcfa5" fill-opacity="1"></use><g><use xlink:href="#f9CHToPjp" opacity="1" fill-opacity="0" stroke="#000000" stroke-width="1" stroke-opacity="0"></use></g></g><g><use xlink:href="#bkCWpKCEn" opacity="1" fill="#e2ba8a" fill-opacity="1"></use><g><use xlink:href="#bkCWpKCEn" opacity="1" fill-opacity="0" stroke="#000000" stroke-width="1" stroke-opacity="0"></use></g></g><g><use xlink:href="#c23wYeTPYL" opacity="1" fill="#e2ba8a" fill-opacity="1"></use><g><use xlink:href="#c23wYeTPYL" opacity="1" fill-opacity="0" stroke="#000000" stroke-width="1" stroke-opacity="0"></use></g></g><g><use xlink:href="#m8hV3l1WTa" opacity="1" fill="#e2ba8a" fill-opacity="1"></use><g><use xlink:href="#m8hV3l1WTa" opacity="1" fill-opacity="0" stroke="#000000" stroke-width="1" stroke-opacity="0"></use></g></g><g><use xlink:href="#b1wROIBoXU" opacity="1" fill="#efcfa5" fill-opacity="1"></use><g><use xlink:href="#b1wROIBoXU" opacity="1" fill-opacity="0" stroke="#000000" stroke-width="1" stroke-opacity="0"></use></g></g><g><use xlink:href="#b4qgvOYJWc" opacity="1" fill="#e2ba8a" fill-opacity="1"></use><g><use xlink:href="#b4qgvOYJWc" opacity="1" fill-opacity="0" stroke="#000000" stroke-width="1" stroke-opacity="0"></use></g></g><g><use xlink:href="#aMmQAFO43" opacity="1" fill="#efcfa5" fill-opacity="1"></use><g><use xlink:href="#aMmQAFO43" opacity="1" fill-opacity="0" stroke="#000000" stroke-width="1" stroke-opacity="0"></use></g></g><g><use xlink:href="#eeE1cm6n6" opacity="1" fill="#efcfa5" fill-opacity="1"></use><g><use xlink:href="#eeE1cm6n6" opacity="1" fill-opacity="0" stroke="#000000" stroke-width="1" stroke-opacity="0"></use></g></g><g><use xlink:href="#e2eah6P1r4" opacity="1" fill="#efcfa5" fill-opacity="1"></use><g><use xlink:href="#e2eah6P1r4" opacity="1" fill-opacity="0" stroke="#000000" stroke-width="1" stroke-opacity="0"></use></g></g><g><use xlink:href="#b7yyqp7488" opacity="1" fill="#efcfa5" fill-opacity="1"></use><g><use xlink:href="#b7yyqp7488" opacity="1" fill-opacity="0" stroke="#000000" stroke-width="1" stroke-opacity="0"></use></g></g><g><use xlink:href="#b2lq3EzTZG" opacity="1" fill="#efcfa5" fill-opacity="1"></use><g><use xlink:href="#b2lq3EzTZG" opacity="1" fill-opacity="0" stroke="#000000" stroke-width="1" stroke-opacity="0"></use></g></g><g><use xlink:href="#cgr7TERPN" opacity="1" fill="#efcfa5" fill-opacity="1"></use><g><use xlink:href="#cgr7TERPN" opacity="1" fill-opacity="0" stroke="#000000" stroke-width="1" stroke-opacity="0"></use></g></g><g><use xlink:href="#csKDbDNdy" opacity="1" fill="#efcfa5" fill-opacity="1"></use><g><use xlink:href="#csKDbDNdy" opacity="1" fill-opacity="0" stroke="#000000" stroke-width="1" stroke-opacity="0"></use></g></g><g><use xlink:href="#bfeV6C8Xn" opacity="1" fill="#efcfa5" fill-opacity="1"></use><g><use xlink:href="#bfeV6C8Xn" opacity="1" fill-opacity="0" stroke="#000000" stroke-width="1" stroke-opacity="0"></use></g></g><g><use xlink:href="#kaF3op7em" opacity="1" fill="#e2ba8a" fill-opacity="1"></use><g><use xlink:href="#kaF3op7em" opacity="1" fill-opacity="0" stroke="#000000" stroke-width="1" stroke-opacity="0"></use></g></g><g><use xlink:href="#d483vjiynv" opacity="1" fill="#e2ba8a" fill-opacity="1"></use><g><use xlink:href="#d483vjiynv" opacity="1" fill-opacity="0" stroke="#000000" stroke-width="1" stroke-opacity="0"></use></g></g><g><use xlink:href="#a1RXVXEaFR" opacity="1" fill="#e2ba8a" fill-opacity="1"></use><g><use xlink:href="#a1RXVXEaFR" opacity="1" fill-opacity="0" stroke="#000000" stroke-width="1" stroke-opacity="0"></use></g></g><g><use xlink:href="#c35N6mvcby" opacity="1" fill="#e2ba8a" fill-opacity="1"></use><g><use xlink:href="#c35N6mvcby" opacity="1" fill-opacity="0" stroke="#000000" stroke-width="1" stroke-opacity="0"></use></g></g><g><use xlink:href="#e62r5U8i5" opacity="1" fill="#e2ba8a" fill-opacity="1"></use><g><use xlink:href="#e62r5U8i5" opacity="1" fill-opacity="0" stroke="#000000" stroke-width="1" stroke-opacity="0"></use></g></g><g><use xlink:href="#bbalQADOFJ" opacity="1" fill="#efcfa5" fill-opacity="1"></use><g><use xlink:href="#bbalQADOFJ" opacity="1" fill-opacity="0" stroke="#000000" stroke-width="1" stroke-opacity="0"></use></g></g><g><use xlink:href="#b8ta5NdhM" opacity="1" fill="#e2ba8a" fill-opacity="1"></use><g><use xlink:href="#b8ta5NdhM" opacity="1" fill-opacity="0" stroke="#000000" stroke-width="1" stroke-opacity="0"></use></g></g><g><use xlink:href="#bbLf9FvO" opacity="1" fill="#e2ba8a" fill-opacity="1"></use><g><use xlink:href="#bbLf9FvO" opacity="1" fill-opacity="0" stroke="#000000" stroke-width="1" stroke-opacity="0"></use></g></g><g><use xlink:href="#a5lSBIVK0P" opacity="1" fill="#e2ba8a" fill-opacity="1"></use><g><use xlink:href="#a5lSBIVK0P" opacity="1" fill-opacity="0" stroke="#000000" stroke-width="1" stroke-opacity="0"></use></g></g><g><use xlink:href="#c9jf9tvOD" opacity="1" fill="#c18e57" fill-opacity="1"></use><g><use xlink:href="#c9jf9tvOD" opacity="1" fill-opacity="0" stroke="#000000" stroke-width="1" stroke-opacity="0"></use></g></g><g><use xlink:href="#fIfDI5A5C" opacity="1" fill="#a8733f" fill-opacity="1"></use><g><use xlink:href="#fIfDI5A5C" opacity="1" fill-opacity="0" stroke="#000000" stroke-width="1" stroke-opacity="0"></use></g></g><g><use xlink:href="#a6rz3AK3e" opacity="1" fill="#efcfa5" fill-opacity="1"></use><g><use xlink:href="#a6rz3AK3e" opacity="1" fill-opacity="0" stroke="#000000" stroke-width="1" stroke-opacity="0"></use></g></g><g><use xlink:href="#b2b1XWOj5z" opacity="1" fill="#c18e57" fill-opacity="1"></use><g><use xlink:href="#b2b1XWOj5z" opacity="1" fill-opacity="0" stroke="#000000" stroke-width="1" stroke-opacity="0"></use></g></g><g><use xlink:href="#c5W96Zhhog" opacity="1" fill="#a8733f" fill-opacity="1"></use><g><use xlink:href="#c5W96Zhhog" opacity="1" fill-opacity="0" stroke="#000000" stroke-width="1" stroke-opacity="0"></use></g></g><g><use xlink:href="#a1eOdEnR6G" opacity="1" fill="#efcfa5" fill-opacity="1"></use><g><use xlink:href="#a1eOdEnR6G" opacity="1" fill-opacity="0" stroke="#000000" stroke-width="1" stroke-opacity="0"></use></g></g><g><use xlink:href="#k2ai7hIj3" opacity="1" fill="#e2ba8a" fill-opacity="1"></use><g><use xlink:href="#k2ai7hIj3" opacity="1" fill-opacity="0" stroke="#000000" stroke-width="1" stroke-opacity="0"></use></g></g><g><use xlink:href="#coubBt1s9" opacity="1" fill="#c18e57" fill-opacity="1"></use><g><use xlink:href="#coubBt1s9" opacity="1" fill-opacity="0" stroke="#000000" stroke-width="1" stroke-opacity="0"></use></g></g><g><use xlink:href="#b1dVTtBN1x" opacity="1" fill="#a8733f" fill-opacity="1"></use><g><use xlink:href="#b1dVTtBN1x" opacity="1" fill-opacity="0" stroke="#000000" stroke-width="1" stroke-opacity="0"></use></g></g><g><use xlink:href="#c45LBDjRb5" opacity="1" fill="#c18e57" fill-opacity="1"></use><g><use xlink:href="#c45LBDjRb5" opacity="1" fill-opacity="0" stroke="#000000" stroke-width="1" stroke-opacity="0"></use></g></g><g><use xlink:href="#lkWBJdRnZ" opacity="1" fill="#a8733f" fill-opacity="1"></use><g><use xlink:href="#lkWBJdRnZ" opacity="1" fill-opacity="0" stroke="#000000" stroke-width="1" stroke-opacity="0"></use></g></g><g><use xlink:href="#bWoCm7lOU" opacity="1" fill="#c18e57" fill-opacity="1"></use><g><use xlink:href="#bWoCm7lOU" opacity="1" fill-opacity="0" stroke="#000000" stroke-width="1" stroke-opacity="0"></use></g></g><g><use xlink:href="#b28t60lHNN" opacity="1" fill="#a8733f" fill-opacity="1"></use><g><use xlink:href="#b28t60lHNN" opacity="1" fill-opacity="0" stroke="#000000" stroke-width="1" stroke-opacity="0"></use></g></g><g><use xlink:href="#j63iKsYUQ" opacity="1" fill="#c18e57" fill-opacity="1"></use><g><use xlink:href="#j63iKsYUQ" opacity="1" fill-opacity="0" stroke="#000000" stroke-width="1" stroke-opacity="0"></use></g></g><g><use xlink:href="#c1ew5KxH6X" opacity="1" fill="#a8733f" fill-opacity="1"></use><g><use xlink:href="#c1ew5KxH6X" opacity="1" fill-opacity="0" stroke="#000000" stroke-width="1" stroke-opacity="0"></use></g></g><g><use xlink:href="#d169fBzh2M" opacity="1" fill="#c18e57" fill-opacity="1"></use><g><use xlink:href="#d169fBzh2M" opacity="1" fill-opacity="0" stroke="#000000" stroke-width="1" stroke-opacity="0"></use></g></g><g><use xlink:href="#f6Y3qJdNn" opacity="1" fill="#a8733f" fill-opacity="1"></use><g><use xlink:href="#f6Y3qJdNn" opacity="1" fill-opacity="0" stroke="#000000" stroke-width="1" stroke-opacity="0"></use></g></g><g><use xlink:href="#cBrEBlLP2" opacity="1" fill="#c18e57" fill-opacity="1"></use><g><use xlink:href="#cBrEBlLP2" opacity="1" fill-opacity="0" stroke="#000000" stroke-width="1" stroke-opacity="0"></use></g></g><g><use xlink:href="#f1vS0IZeRT" opacity="1" fill="#a8733f" fill-opacity="1"></use><g><use xlink:href="#f1vS0IZeRT" opacity="1" fill-opacity="0" stroke="#000000" stroke-width="1" stroke-opacity="0"></use></g></g><g><use xlink:href="#bg7fUnHfx" opacity="1" fill="#c18e57" fill-opacity="1"></use><g><use xlink:href="#bg7fUnHfx" opacity="1" fill-opacity="0" stroke="#000000" stroke-width="1" stroke-opacity="0"></use></g></g><g><use xlink:href="#aUXt6b2t" opacity="1" fill="#a8733f" fill-opacity="1"></use><g><use xlink:href="#aUXt6b2t" opacity="1" fill-opacity="0" stroke="#000000" stroke-width="1" stroke-opacity="0"></use></g></g><g><use xlink:href="#b3XuohYj3U" opacity="1" fill="#efcfa5" fill-opacity="1"></use><g><use xlink:href="#b3XuohYj3U" opacity="1" fill-opacity="0" stroke="#000000" stroke-width="1" stroke-opacity="0"></use></g></g><g><use xlink:href="#lchGu5KcB" opacity="1" fill="#e2ba8a" fill-opacity="1"></use><g><use xlink:href="#lchGu5KcB" opacity="1" fill-opacity="0" stroke="#000000" stroke-width="1" stroke-opacity="0"></use></g></g><g><use xlink:href="#jjfQQhlmy" opacity="1" fill="#c18e57" fill-opacity="1"></use><g><use xlink:href="#jjfQQhlmy" opacity="1" fill-opacity="0" stroke="#000000" stroke-width="1" stroke-opacity="0"></use></g></g><g><use xlink:href="#bw9An0BSV" opacity="1" fill="#a8733f" fill-opacity="1"></use><g><use xlink:href="#bw9An0BSV" opacity="1" fill-opacity="0" stroke="#000000" stroke-width="1" stroke-opacity="0"></use></g></g><g><use xlink:href="#bB6MDrgBW" opacity="1" fill="#e2ba8a" fill-opacity="1"></use><g><use xlink:href="#bB6MDrgBW" opacity="1" fill-opacity="0" stroke="#000000" stroke-width="1" stroke-opacity="0"></use></g></g><g><use xlink:href="#a33aSYrGc" opacity="1" fill="#e2ba8a" fill-opacity="1"></use><g><use xlink:href="#a33aSYrGc" opacity="1" fill-opacity="0" stroke="#000000" stroke-width="1" stroke-opacity="0"></use></g></g><g><use xlink:href="#c1YZO4nOsu" opacity="1" fill="#e2ba8a" fill-opacity="1"></use><g><use xlink:href="#c1YZO4nOsu" opacity="1" fill-opacity="0" stroke="#000000" stroke-width="1" stroke-opacity="0"></use></g></g><g><use xlink:href="#g1yxX8pOPB" opacity="1" fill="#e2ba8a" fill-opacity="1"></use><g><use xlink:href="#g1yxX8pOPB" opacity="1" fill-opacity="0" stroke="#000000" stroke-width="1" stroke-opacity="0"></use></g></g><g><use xlink:href="#cu9RUgOJj" opacity="1" fill="url(#gradientchOK45pqz)"></use><g><use xlink:href="#cu9RUgOJj" opacity="1" fill-opacity="0" stroke="#000000" stroke-width="1" stroke-opacity="0"></use></g></g></g></g></svg>